<?xml version="1.0" encoding="UTF-8"?>
<!DOCTYPE svg PUBLIC "-//W3C//DTD SVG 1.1//EN" "http://www.w3.org/Graphics/SVG/1.1/DTD/svg11.dtd">
<!-- Creator: CorelDRAW -->
<svg xmlns="http://www.w3.org/2000/svg" xml:space="preserve" width="6102px" height="2327px" version="1.1" style="shape-rendering:geometricPrecision; text-rendering:geometricPrecision; image-rendering:optimizeQuality; fill-rule:evenodd; clip-rule:evenodd"
viewBox="0 0 16268.28 6204.51"
 xmlns:xlink="http://www.w3.org/1999/xlink"
 xmlns:xodm="http://www.corel.com/coreldraw/odm/2003">
 <defs>
  <style type="text/css">
   <![CDATA[
    .fil0 {fill:black}
    .fil1 {fill:black;fill-rule:nonzero}
   ]]>
  </style>
 </defs>
 <g id="Capa_x0020_1">
  <metadata id="CorelCorpID_0Corel-Layer"/>
  <path class="fil0" d="M3784.88 320.62c-34.27,138.63 -36.37,401 152.44,589.81 188.81,188.81 480.47,261.78 589.81,152.44 109.34,-109.34 36.37,-401 -152.44,-589.81 -188.81,-188.81 -451.18,-186.7 -589.81,-152.44z"/>
  <path class="fil0" d="M3784.88 320.62c-34.27,138.63 -36.37,401 152.44,589.81 188.81,188.81 480.47,261.79 589.81,152.45l-742.25 -742.26z"/>
  <path class="fil0" d="M3783.3 327.21l-0.01 0c-0.52,2.23 -1.02,4.48 -1.52,6.76l-0.01 0c-0.5,2.29 -0.99,4.6 -1.47,6.94 -0.49,2.34 -0.96,4.71 -1.42,7.11l0 0c-0.47,2.39 -0.92,4.81 -1.36,7.26l0 0c-0.44,2.45 -0.87,4.93 -1.29,7.43 -0.42,2.5 -0.82,5.03 -1.22,7.58l0 0c-0.4,2.55 -0.79,5.13 -1.15,7.73 -0.38,2.6 -0.73,5.23 -1.08,7.88 -0.34,2.65 -0.68,5.32 -0.99,8.01 -0.32,2.7 -0.62,5.41 -0.92,8.16 -0.28,2.74 -0.56,5.5 -0.82,8.28 -0.26,2.78 -0.5,5.58 -0.73,8.41 -0.23,2.82 -0.44,5.67 -0.64,8.53l0 0c-0.2,2.87 -0.38,5.75 -0.54,8.65l0 0c-0.17,2.91 -0.31,5.83 -0.44,8.77 -0.13,2.94 -0.24,5.9 -0.33,8.88 -0.1,2.97 -0.17,5.97 -0.23,8.97 -0.06,3.02 -0.1,6.04 -0.11,9.08l0 0c-0.02,3.05 -0.02,6.1 0,9.17l0 0.01c0.02,3.07 0.06,6.16 0.12,9.26l0 0c0.06,3.11 0.15,6.22 0.25,9.35l0 0.01c0.1,3.12 0.23,6.27 0.37,9.43 0.15,3.16 0.32,6.32 0.51,9.51 0.19,3.18 0.4,6.37 0.63,9.58l0 0c0.24,3.21 0.5,6.43 0.78,9.65l0.01 0c0.28,3.23 0.58,6.47 0.91,9.72 0.33,3.25 0.69,6.51 1.06,9.77l0 0c0.38,3.27 0.79,6.55 1.22,9.83l0 0.01c1.28,9.85 2.8,19.78 4.57,29.77 0.58,3.33 1.2,6.66 1.84,10l0 0c1.29,6.68 2.68,13.38 4.19,20.1 0.76,3.36 1.54,6.73 2.36,10.09l0 0c1.63,6.73 3.37,13.47 5.25,20.22l0 0.01c0.93,3.37 1.9,6.75 2.9,10.13l0 0c1.99,6.75 4.12,13.51 6.37,20.27l0 0c2.25,6.75 4.63,13.51 7.16,20.25l0 0c5.03,13.49 10.61,26.95 16.77,40.32l0 0c6.17,13.38 12.91,26.66 20.27,39.82l0 0c1.85,3.29 3.72,6.58 5.64,9.85l0 0c7.68,13.09 15.98,26.04 24.95,38.79l0 0c4.49,6.38 9.14,12.71 13.97,18.99l0 0c2.41,3.14 4.87,6.26 7.37,9.38l0 0c4.99,6.22 10.16,12.38 15.52,18.48l0 0c2.67,3.06 5.4,6.09 8.16,9.11l0 0c2.77,3.02 5.58,6.02 8.43,9.01l0.01 0c2.86,2.98 5.76,5.95 8.71,8.9l0 0c2.95,2.95 5.92,5.87 8.92,8.77l0 0c3.01,2.89 6.02,5.76 9.07,8.59l0 0c3.05,2.84 6.12,5.64 9.21,8.42l0 0c3.09,2.78 6.2,5.53 9.34,8.25l0 0c3.13,2.72 6.28,5.41 9.46,8.07l0 0c3.17,2.66 6.37,5.3 9.58,7.9l0 0c3.21,2.6 6.44,5.17 9.69,7.71l0 0c9.75,7.63 19.65,14.98 29.68,22.06l0 0c3.35,2.36 6.7,4.69 10.07,6.98l0 0c3.37,2.3 6.75,4.57 10.15,6.8l0 0c10.19,6.71 20.49,13.13 30.86,19.26 3.46,2.05 6.93,4.06 10.4,6.04l0.01 0c3.47,1.98 6.95,3.93 10.44,5.85l0 0c3.49,1.91 6.98,3.79 10.49,5.64l0 0c3.5,1.85 7.01,3.67 10.52,5.45l0 0c3.51,1.79 7.03,3.54 10.55,5.26l0 0c3.52,1.71 7.04,3.4 10.56,5.05l0 0c3.53,1.65 7.06,3.27 10.58,4.85 3.53,1.58 7.06,3.13 10.59,4.65l0 0c3.53,1.51 7.06,2.99 10.59,4.44l0 0c7.06,2.89 14.11,5.65 21.15,8.26 3.52,1.31 7.04,2.59 10.55,3.82 3.52,1.24 7.03,2.44 10.53,3.61l0 0c3.51,1.17 7,2.3 10.49,3.4l0 0c3.5,1.09 6.98,2.16 10.46,3.18 3.47,1.03 6.95,2.02 10.41,2.97 3.46,0.95 6.91,1.87 10.35,2.75l0.01 0c3.44,0.88 6.87,1.72 10.29,2.53 3.43,0.81 6.84,1.58 10.24,2.31 3.4,0.73 6.78,1.43 10.16,2.09l0.01 0c3.37,0.66 6.73,1.29 10.08,1.87 3.34,0.59 6.68,1.14 10,1.65l0 0c3.32,0.51 6.62,0.98 9.91,1.41 3.29,0.44 6.56,0.83 9.81,1.19l0 0.01c3.26,0.36 6.49,0.67 9.71,0.95 3.22,0.29 6.42,0.53 9.6,0.73l0 0.01c3.18,0.2 6.34,0.37 9.48,0.49l0.01 0c3.14,0.13 6.26,0.22 9.35,0.27 3.1,0.05 6.18,0.06 9.23,0.03l0 0c6.11,-0.06 12.13,-0.28 18.04,-0.65 2.96,-0.19 5.89,-0.42 8.8,-0.69l0 0c2.91,-0.27 5.79,-0.57 8.65,-0.92l0 -0.01c2.85,-0.35 5.68,-0.74 8.48,-1.16l0 0c2.8,-0.43 5.57,-0.91 8.31,-1.42 2.74,-0.51 5.45,-1.06 8.13,-1.66 2.69,-0.59 5.33,-1.23 7.96,-1.9 2.62,-0.68 5.21,-1.4 7.76,-2.16 5.11,-1.52 10.09,-3.2 14.94,-5.06l0 0c2.42,-0.93 4.81,-1.9 7.16,-2.91l0 0c2.35,-1.01 4.66,-2.07 6.94,-3.16l0 0c2.28,-1.1 4.52,-2.24 6.72,-3.43 2.21,-1.18 4.38,-2.41 6.5,-3.68l0 0c2.13,-1.27 4.21,-2.58 6.26,-3.94l0 0c2.05,-1.35 4.06,-2.76 6.02,-4.2l0 0c1.97,-1.44 3.89,-2.93 5.77,-4.46l0 0c1.88,-1.53 3.73,-3.11 5.52,-4.73l0 0c1.8,-1.61 3.55,-3.28 5.26,-4.99l0 0 0 0 -742.25 -742.25c-0.54,2.17 -1.06,4.36 -1.58,6.59z"/>
  <path class="fil0" d="M4527.13 13.17c-122.25,73.8 -309.27,257.83 -309.27,524.85 0,267.02 154.64,524.85 309.27,524.85 154.63,0 309.27,-257.83 309.27,-524.85 0,-267.02 -187.02,-451.05 -309.27,-524.85z"/>
  <path class="fil0" d="M4527.13 13.17c-122.25,73.79 -309.27,257.83 -309.27,524.85 0,267.02 154.64,524.85 309.27,524.85l0 -1049.7z"/>
  <path class="fil0" d="M5269.38 320.62c-138.63,-34.26 -401,-36.37 -589.82,152.45 -188.8,188.8 -261.78,480.46 -152.44,589.81 109.35,109.34 401.01,36.36 589.81,-152.44 188.82,-188.82 186.71,-451.19 152.45,-589.82z"/>
  <path class="fil0" d="M5269.38 320.62c-138.63,-34.26 -401,-36.37 -589.82,152.45 -188.8,188.8 -261.78,480.46 -152.44,589.81 109.35,109.34 401.01,36.36 589.81,-152.44 188.82,-188.82 186.71,-451.19 152.45,-589.82z"/>
  <path class="fil0" d="M5269.38 320.62c-138.63,-34.26 -401,-36.37 -589.81,152.45 -188.81,188.81 -261.79,480.47 -152.45,589.81l742.26 -742.26z"/>
  <g id="_1999958514816">
   <path class="fil1" d="M534.55 4679.85c-260.66,0 -470.41,-205.02 -470.41,-464.36l0 -3751.14c0,-259.58 209.24,-464.35 470.41,-464.35 198.29,0 357.33,106.89 434.12,282.97 25.4,56.83 37.49,117.3 37.49,181.38l0 1179.04 1683.3 -1512.79c147.86,-129.78 324.68,-166.7 497,-93.11 122.31,52.23 206.7,135.03 262.41,256.36 26.61,59.25 41.12,122.14 41.12,187.44 0,130.6 -48.37,241.85 -145.11,337.38l-1640.97 1463.21 1707.48 1593.81c233.48,225.58 157.4,624.96 -159.63,765.47 -58.04,25.39 -118.51,38.69 -180.18,38.69 -125.76,0 -234.59,-47.16 -330.13,-141.48l-1735.29 -1611.95 0 1289.07c0,125.36 -50.92,241.96 -137.86,330.13 -89.48,89.49 -200.73,134.23 -333.75,134.23zm3963.96 38.7c-256.33,0 -477.65,-217.08 -477.65,-466.78l0 -2522.52c0,-320.48 350.28,-564.43 663.88,-430.5 179.06,76.47 281.76,235.78 281.76,430.5l0 2522.52c0,120.64 -53.14,244.2 -137.86,328.92 -86.96,86.97 -204.96,137.86 -330.13,137.86zm1530.93 -38.7c-126.04,0 -248.59,-48.33 -339.8,-134.23 -96.74,-90.69 -145.11,-198.32 -145.11,-326.5l0 -1275.77c0,-450.16 179.8,-873.92 495.8,-1189.92 854.74,-854.75 2289.35,-546.92 2772.84,541.75 90.69,205.58 135.44,422.03 135.44,648.17l0 1275.77c0,435.17 -511.89,602.23 -796.91,326.5 -94.32,-88.27 -141.48,-195.9 -141.48,-326.5l0 -1272.15c-2.42,-99.15 -25.4,-193.48 -67.72,-284.17 -126.58,-273.06 -418.36,-455.89 -718.31,-455.89 -300.75,0 -551.01,165.21 -672.35,437.75 -38.69,88.27 -59.25,182.6 -61.67,281.76l0 1292.7c0,131.81 -44.74,240.65 -134.23,326.5 -89.48,89.49 -198.31,134.23 -326.5,134.23zm5278.44 42.32c-953.63,0 -1728.04,-775.34 -1728.04,-1729.24l0 -2291.56c0,-259.64 212.43,-478.87 474.04,-478.87 124.68,0 255.91,53.91 344.64,139.07 87.14,85.37 148.73,214.4 148.73,339.8l0 453.48 1087.13 0c64.09,0 124.56,12.09 182.6,37.48 58.05,24.19 108.83,58.05 153.58,100.37 42.32,44.75 76.18,96.74 101.58,154.79 24.18,58.04 37.48,118.51 37.48,182.6 0,124.55 -47.16,230.97 -139.06,318.03 -90.65,85.82 -210.21,135.44 -336.18,135.44l-1087.13 0 0 916.62c0,212.24 71.75,403.03 218.88,552.64 146.78,149.24 331.74,227.34 541.75,227.34 205.58,0 368.83,-55.63 489.75,-166.88 154.97,-143.82 332.34,-202.62 515.15,-125.76 161.74,68.91 267.25,237.09 267.25,406.31 0,147.4 -63.29,299.64 -169.3,403.89 -294.52,289.62 -689.09,424.45 -1102.85,424.45zm3352.08 -3.62c-680.92,0 -1289.39,-413.91 -1555.11,-1033.92 -87.07,-203.16 -130.6,-418.41 -130.6,-644.54l0 -1310.84c0,-125.17 50.88,-243.17 137.86,-330.13 84.71,-84.72 208.28,-137.86 328.92,-137.86 123.55,0 249.34,52.23 337.38,137.86 87.2,84.81 137.86,207.28 137.86,330.13l0 1320.51c0,305.92 174.06,555.99 453.47,671.14 175.02,72.14 394.07,77.06 567.14,0 267.34,-119.02 389.39,-395.27 389.39,-680.81l0 -1310.84c0,-322.27 353.72,-565.25 662.67,-430.5 177.78,77.53 279.34,235.61 279.34,430.5l0 1310.84c0,447.38 -152.42,861.69 -457.1,1182.66 -304.66,320.95 -702.01,495.8 -1151.22,495.8z"/>
   <path class="fil1" d="M581.8 5279.36c0,-11.64 -1.94,-25.99 -5.82,-43.06l-570.21 0c-7.69,33.86 -7.69,52.26 0,86.11l238.56 0 0 662.14c35.58,7.73 58.88,7.69 94.25,0l0 -662.14 237.4 0c3.88,-17.06 5.82,-31.42 5.82,-43.05zm441.03 158.26c-76.61,-26.07 -163.39,-24.77 -241.47,3.49 -40.72,14.74 -73.11,32.19 -97.16,52.36l0 489.91c28.75,6.05 68.1,6.43 95.42,0l0 -448.01c57.8,-35.33 159.07,-32.75 219.93,-16.29 15.95,-20.73 24.8,-55.55 23.28,-81.46zm289.75 -18.62c-72.35,0 -161.75,27.93 -208.29,74.47 4.83,25.8 23.54,50.76 47.71,62.84 99.3,-74.49 306.05,-79.5 306.05,76.81l0 41.89c-103.9,-41.57 -281.63,-45.33 -349.69,54.69 -39.29,57.73 -37.41,139.36 0.58,190.27 70,93.79 224.98,89.72 334.56,64 44.61,-10.48 80.1,-23.08 106.48,-37.82l0 -313.03c0,-145.08 -97.55,-214.12 -237.4,-214.12zm-136.15 397.98c0,-118.94 203.3,-93.16 281.62,-57.02l0 133.82c-83.66,29.43 -281.62,49.71 -281.62,-76.8zm941.42 -385.18c-13.19,0 -25.6,1.16 -37.24,3.49 -45.54,162.31 -97.39,301.02 -165.24,450.34 -41.21,-90.65 -68.65,-148.84 -103.57,-243.2 -28.7,-77.58 -51.98,-146.63 -69.82,-207.14 -30.85,-6.17 -69.38,-3.98 -97.75,4.66 62.07,211.01 136.15,392.16 222.26,543.43 24.78,6.2 62.07,6.31 87.28,0 94.3,-174.58 176.46,-371.51 219.94,-543.43 -14.74,-5.44 -33.36,-8.15 -55.86,-8.15zm641.19 230.41c0,-280.01 -386.72,-339.57 -489.33,-66.91 -39.28,104.39 -23.03,244.44 55.86,325.83 51.42,53.06 122.03,78.54 197.24,78.54 80.68,0 152.44,-26.37 215.28,-79.13 -6.23,-23.38 -29.23,-53.01 -51.2,-64 -55.31,41.96 -98.23,57.02 -162.92,57.02 -101.58,0 -169.37,-77.76 -176.87,-176.88l407.28 0c3.11,-27.93 4.66,-52.75 4.66,-74.47zm-410.78 -3.49c25.64,-205.07 313.03,-211.99 313.03,0l-313.03 0zm595.8 329.32c18.62,0 34.52,-1.55 47.71,-4.66l0 -764.54c-27.13,-6.38 -65.3,-6.09 -94.26,0l0 764.54c14.75,3.11 30.26,4.66 46.55,4.66zm998.44 -90.77l-381.69 0 0 -256.01 329.32 0c9.16,-30.5 9.43,-56.27 0,-86.11l-329.32 0 0 -231.57 370.05 0c9.47,-26.84 9.26,-62.6 0,-87.28l-463.14 0 0 747.08 474.78 0c8.77,-26.31 9.9,-59.71 0,-86.11zm392.16 -194.33l178.04 -262.99c-31.84,-9.7 -66.14,-10.12 -98.91,-4.66l-131.5 208.3 -145.45 -208.3c-12.42,-2.33 -25.22,-3.49 -38.41,-3.49 -24.82,0 -46.16,2.71 -64,8.15l186.19 262.99 -195.5 278.12c13.97,6.2 32.59,9.31 55.86,9.31 16.29,0 30.25,-1.56 41.89,-4.66l151.28 -223.42 155.93 223.42c5.9,4 75.78,9.82 104.73,-4.65l-200.15 -278.12zm530.64 -283.94c-81.63,0 -169.11,33.24 -228.08,83.78l1.16 697.05c28.72,6.04 65.79,6.42 93.09,0l0 -223.43c68.6,26.07 167.14,31.87 244.38,2.91 211.56,-79.33 223.87,-365.01 96,-485.25 -54.79,-51.53 -130.25,-75.06 -206.55,-75.06zm0 492.24c-43.77,0 -98.29,-8.94 -133.83,-30.26l-1.16 -335.14c80.46,-48.98 202.99,-55.54 274.63,16.87 97.23,98.29 70.96,348.53 -139.64,348.53zm903.01 -249.03c0,-280.01 -386.72,-339.57 -489.32,-66.91 -39.29,104.39 -23.03,244.44 55.85,325.83 51.42,53.06 122.04,78.54 197.25,78.54 80.68,0 152.44,-26.37 215.27,-79.13 -6.23,-23.38 -29.22,-53.01 -51.2,-64 -55.3,41.96 -98.23,57.02 -162.91,57.02 -101.59,0 -169.38,-77.76 -176.88,-176.88l407.29 0c3.1,-27.93 4.65,-52.75 4.65,-74.47zm-410.78 -3.49c25.64,-205.07 313.03,-211.99 313.03,0l-313.03 0zm980.98 -444.53c-17.06,0 -32.19,1.55 -45.38,4.65l0 226.92c-66.47,-32.5 -167.34,-34.1 -243.21,-5.23 -212.3,80.77 -228.28,360.79 -97.17,484.09 88.03,82.78 214.15,87.59 328.16,59.35 42.28,-10.48 77.39,-23.47 105.32,-38.99l0 -726.14c-14.75,-3.1 -30.65,-4.65 -47.72,-4.65zm-180.37 699.37c-120.15,0 -193.17,-81.44 -193.17,-202.48 0,-120.43 78.71,-203.64 196.66,-203.64 55.86,0 99.69,10.47 131.5,31.42l0 351.43c-40.34,17.07 -85.33,24.83 -134.99,23.27zm450.35 -573.69c59.06,0 86.83,-72.61 45.96,-113.46 -41.33,-41.33 -113.45,-12.07 -113.45,47.13 0,37.65 30.17,66.33 67.49,66.33zm0 648.17c17.84,0 33.36,-1.55 46.55,-4.66l0 -549.25c-27.48,-6.47 -65.78,-6 -94.26,0l0 549.25c14.74,3.11 30.64,4.66 47.71,4.66zm560.89 -114.04c-49.16,41.78 -134.2,61.18 -182.69,15.71 -18.62,-17.46 -27.93,-48.68 -27.93,-93.68l0 -280.45 217.6 0c6.07,-24.23 6.38,-51.74 0,-75.63l-217.6 0 0 -147.79c-26.76,-6.3 -65.6,-6.2 -91.93,0l0 147.79 -94.26 0c-6.38,23.89 -6.06,51.4 0,75.63l94.26 0 0 299.07c0,121.2 70.34,183.86 190.84,183.86 54.75,0 116.69,-23.02 153.6,-58.18 -5.19,-27.26 -20.51,-52.73 -41.89,-66.33zm188.52 -534.13c59.06,0 86.83,-72.61 45.96,-113.46 -41.32,-41.33 -113.45,-12.07 -113.45,47.13 0,37.65 30.17,66.33 67.49,66.33zm0 648.17c17.84,0 33.36,-1.55 46.55,-4.66l0 -549.25c-27.48,-6.47 -65.77,-6 -94.26,0l0 549.25c14.74,3.11 30.64,4.66 47.71,4.66zm466.64 10.47c210.47,0 341.91,-206.97 262.99,-410.19 -88.43,-227.71 -426.84,-229.06 -520.75,6.98 -72.84,183.09 40.96,403.21 257.76,403.21zm3.49 -87.27c-198.5,0 -232.31,-242.02 -136.16,-349.11 95.09,-105.89 323.51,-71.04 323.51,146.62 0,115.34 -69.49,202.49 -187.35,202.49zm669.11 -492.24c-87.44,0 -187.14,31.73 -251.35,83.78l0 480.6c28.95,6.09 67.12,6.38 94.25,0l0 -438.7c74.27,-41.97 205.7,-60.78 268.23,1.74 26.77,26.77 40.15,69.63 40.15,128.59l0 308.37c28.95,6.09 67.12,6.38 94.26,0l0 -340.95c0,-145.02 -102.96,-223.43 -245.54,-223.43zm584.17 580.67c122.66,0 229.24,-54.34 229.24,-180.36 0,-116.89 -111.3,-150.16 -211.78,-164.08 -65.11,-9.03 -124.52,-24.08 -124.52,-81.46 0,-56.48 62.97,-72.15 118.7,-72.15 61.28,0 115.2,14.35 161.75,43.06 20.94,-18.62 34.52,-42.28 40.73,-70.99 -44.98,-37.16 -128.54,-54.69 -192.01,-54.69 -67.49,0 -121.22,15.51 -161.17,46.55 -39.95,31.03 -59.93,70.59 -59.93,118.69 0,92.32 65.56,146.24 196.66,161.75 65.58,7.92 139.64,24.69 139.64,86.12 0,93.38 -147.46,95.78 -220.51,73.31 -25.21,-7.76 -50.23,-21.73 -75.06,-41.9 -23.46,13.41 -43.56,41.85 -53.53,67.5 47.49,47.49 138.32,68.65 211.79,68.65z"/>
  </g>
 </g>
</svg>
